<svg xmlns="http://www.w3.org/2000/svg" width="494" height="500" viewBox="0 0 494 500">
  <path fill="#CB181F" d="M32.2 5.1l-8.7 5.1-8.8-5.1L23.4 0z"/>
   <path fill="#B6161C" d="M32.2 5.1v10.1l-8.7 5.1V10.2z"/>
   <path fill="#7F0F13" d="M23.5 10.2v10.1l-8.9-5.1.1-10.1z"/>
   <path fill="#CB181F" d="M46.8 13.5L38 18.6l-8.8-5.1L38 8.4z"/>
   <path fill="#B6161C" d="M46.8 13.5v10.1L38 28.7V18.6z"/>
   <path fill="#CB181F" d="M46.8 30.3L38 35.4l-8.8-5.1 8.8-5.1z"/>
   <path fill="#B6161C" d="M46.8 30.3v10.1L38 45.5V35.4z"/>
   <path fill="#CB181F" d="M32.2 38.8l-8.7 5.1-8.8-5.1 8.7-5.1z"/>
   <path fill="#B6161C" d="M32.2 38.8v10.1L23.5 54V43.9z"/>
   <path fill="#CB181F" d="M17.6 30.3l-8.8 5.1L0 30.3l8.8-5.1z"/>
   <path fill="#B6161C" d="M17.6 30.3v10.1l-8.8 5.1V35.4z"/>
   <path fill="#CB181F" d="M17.6 13.5l-8.7 5.1-8.8-5.1 8.7-5.1z"/>
   <path fill="#B6161C" d="M17.6 13.5v10.1l-8.7 5.1V18.6z"/>
</svg>
